<?xml version="1.0" encoding="UTF-8"?>
<svg width="193px" height="44px" viewBox="0 0 193 44" version="1.1" xmlns="http://www.w3.org/2000/svg" xmlns:xlink="http://www.w3.org/1999/xlink">
    <title>编组</title>
    <g id="页面-1" stroke="none" stroke-width="1" fill="none" fill-rule="evenodd">
        <g id="segment-Control图例" transform="translate(-129.000000, -204.000000)">
            <g id="编组" transform="translate(129.874016, 204.000000)">
                <path d="M5.1277704,-1.1140022e-15 L186.87223,2.07168062e-16 C188.655267,-1.2037061e-16 189.30184,0.185651222 189.953691,0.534265408 C190.605543,0.882879593 191.11712,1.39445674 191.465735,2.04630859 C191.814349,2.69816044 192,3.34473292 192,5.1277704 L192,38.8722296 C192,40.6552671 191.814349,41.3018396 191.465735,41.9536914 C191.11712,42.6055433 190.605543,43.1171204 189.953691,43.4657346 C189.30184,43.8143488 188.655267,44 186.87223,44 L5.1277704,44 C3.34473292,44 2.69816044,43.8143488 2.04630859,43.4657346 C1.39445674,43.1171204 0.882879593,42.6055433 0.534265408,41.9536914 C0.185651222,41.3018396 -9.73546427e-16,40.6552671 1.67555624e-15,38.8722296 L1.38112041e-16,5.1277704 C-8.02470732e-17,3.34473292 0.185651222,2.69816044 0.534265408,2.04630859 C0.882879593,1.39445674 1.39445674,0.882879593 2.04630859,0.534265408 C2.69816044,0.185651222 3.34473292,6.4726736e-16 5.1277704,-1.1140022e-15 Z" id="矩形" fill="#F5F5F5"></path>
                <path d="M117.205563,4.5 C118.847002,4.5 119.449254,4.65323445 120.051225,4.97517201 C120.614654,5.27649702 121.056836,5.71867923 121.358161,6.28210802 C121.680099,6.88407891 121.833333,7.48633153 121.833333,9.1277704 L121.833333,9.1277704 L121.833333,34.8722296 C121.833333,36.5136685 121.680099,37.1159211 121.358161,37.717892 C121.056836,38.2813208 120.614654,38.723503 120.051225,39.024828 C119.449254,39.3467655 118.847002,39.5 117.205563,39.5 L117.205563,39.5 L74.1277704,39.5 C72.4863315,39.5 71.8840789,39.3467655 71.282108,39.024828 C70.7186792,38.723503 70.276497,38.2813208 69.975172,37.717892 C69.6532345,37.1159211 69.5,36.5136685 69.5,34.8722296 L69.5,34.8722296 L69.5,9.1277704 C69.5,7.48633153 69.6532345,6.88407891 69.975172,6.28210802 C70.276497,5.71867923 70.7186792,5.27649702 71.282108,4.97517201 C71.8840789,4.65323445 72.4863315,4.5 74.1277704,4.5 L74.1277704,4.5 Z" id="矩形" stroke="#D9D9D9" fill="#FFFFFF"></path>
                <text id="｜｜｜｜｜｜｜｜" font-family="PingFangSC-Regular, PingFang SC" font-size="12" font-weight="normal" letter-spacing="-8.57142857" fill="#000000" fill-opacity="0.85">
                    <tspan x="77" y="27">｜｜｜｜｜｜｜｜</tspan>
                </text>
                <text id="｜｜｜｜｜｜｜｜" font-family="PingFangSC-Regular, PingFang SC" font-size="12" font-weight="normal" letter-spacing="-8.57142857" fill="#000000" fill-opacity="0.65">
                    <tspan x="15" y="27">｜｜｜｜｜｜｜｜</tspan>
                </text>
                <text id="｜｜｜｜｜｜｜｜" font-family="PingFangSC-Regular, PingFang SC" font-size="12" font-weight="normal" letter-spacing="-8.57142857" fill="#000000" fill-opacity="0.65">
                    <tspan x="134" y="27">｜｜｜｜｜｜｜｜</tspan>
                </text>
            </g>
        </g>
    </g>
</svg>