<?xml version="1.0" encoding="iso-8859-1"?>
<!-- Generator: Adobe Illustrator 23.0.2, SVG Export Plug-In . SVG Version: 6.00 Build 0)  -->
<svg version="1.1" id="&#x56FE;&#x5C42;_1" xmlns="http://www.w3.org/2000/svg" xmlns:xlink="http://www.w3.org/1999/xlink" x="0px"
	 y="0px" viewBox="0 0 1000 1000" style="enable-background:new 0 0 1000 1000;" xml:space="preserve">
<g>
	<defs>
		<path id="XMLID_58_" d="M302.888,348.036c0,0-28.675-99.566,78.06-161.696s233.384-15.931,311.444,46.199
			s103.549,163.289,97.177,219.843s-20.71,140.19-98.77,207.895c0,0-15.134,11.948,15.931,16.727s67.705,58.943,2.39,115.497
			c0,0-18.32,41.42-86.822,31.065c0,0-283.565,0-242.146,0c0,0-38.233-63.723-41.42-125.852s-28.675-84.432-46.199-92.398
			c-17.524-7.965-87.22-31.463-82.839-56.155c3.206-18.069,30.268-43.411,40.667-95.362c0,0,7.125-20.534-13.585-41.243
			s7.169-24.692,16.727-30.268C263.061,376.711,294.922,358.39,302.888,348.036z"/>
	</defs>
	<linearGradient id="XMLID_2_" gradientUnits="userSpaceOnUse" x1="488.6559" y1="794.4468" x2="510.6241" y2="213.8537">
		<stop  offset="0" style="stop-color:#C7D8B6"/>
		<stop  offset="0.5" style="stop-color:#2D97A8"/>
		<stop  offset="1" style="stop-color:#0F543A"/>
	</linearGradient>
	<use xlink:href="#XMLID_58_"  style="overflow:visible;fill:url(#XMLID_2_);"/>
	<clipPath id="XMLID_3_">
		<use xlink:href="#XMLID_58_"  style="overflow:visible;"/>
	</clipPath>
	<linearGradient id="SVGID_1_" gradientUnits="userSpaceOnUse" x1="413.48" y1="364.848" x2="229.9847" y2="510.8953">
		<stop  offset="0" style="stop-color:#FFFFFF"/>
		<stop  offset="0.4798" style="stop-color:#FFFFFF;stop-opacity:0"/>
	</linearGradient>
	<path style="clip-path:url(#XMLID_3_);fill:url(#SVGID_1_);" d="M357.011,409.105c-0.789,0-1.574,0.016-2.357,0.04
		c0.084-1.487,0.131-2.985,0.131-4.493c0-43.447-35.221-78.669-78.669-78.669c-43.447,0-78.669,35.221-78.669,78.669
		s35.221,78.669,78.669,78.669c2.002,0,3.985-0.076,5.949-0.223c-0.004,0.322-0.012,0.642-0.012,0.965
		c0,41.398,33.56,74.958,74.958,74.958s74.958-33.56,74.958-74.958C431.969,442.665,398.409,409.105,357.011,409.105z"/>
	
		<linearGradient id="SVGID_2_" gradientUnits="userSpaceOnUse" x1="257.1601" y1="274.0999" x2="487.0461" y2="441.8996" gradientTransform="matrix(0.9186 0.3951 -0.3951 0.9186 488.6821 -15.5683)">
		<stop  offset="0" style="stop-color:#FFFFFF"/>
		<stop  offset="0.6289" style="stop-color:#FFFFFF;stop-opacity:0"/>
	</linearGradient>
	<path style="clip-path:url(#XMLID_3_);fill:url(#SVGID_2_);" d="M818.91,375.913c-43.326-18.635-93.285-0.088-114.274,41.437
		c-23.094,4.001-44.175,17.332-57.502,37.711c-38.148-10.427-79.123,8.563-95.196,45.932
		c-17.588,40.892,1.304,88.299,42.196,105.887c34.115,14.673,72.761,3.952,94.847-23.748c39.628,14.904,83.975-1.313,104.897-37.432
		c30.579-3.511,58.479-22.845,71.513-53.148C884.763,447.507,863.954,395.287,818.91,375.913z"/>
	
		<linearGradient id="SVGID_3_" gradientUnits="userSpaceOnUse" x1="301.1274" y1="190.2362" x2="433.4115" y2="299.2007" gradientTransform="matrix(0.9403 0.3405 -0.3405 0.9403 384.4209 -12.8106)">
		<stop  offset="0" style="stop-color:#FFFFFF"/>
		<stop  offset="0.8017" style="stop-color:#FFFFFF;stop-opacity:0"/>
	</linearGradient>
	<path style="clip-path:url(#XMLID_3_);fill:url(#SVGID_3_);" d="M777.648,295.301c-25.219-9.132-52.74,1.194-66.139,23.278
		c-21.666-7.587-44.923-0.971-59.514,15.045c-31.305-2.404-61.665,15.275-74.387,45.22c-14.718,7.492-26.736,20.371-32.803,37.124
		c-12.68,35.015,5.427,73.68,40.442,86.359c27.73,10.042,57.745,0.772,75.334-20.911c24.895-4.868,46.689-22.299,55.955-47.886
		c1.654-4.567,2.829-9.189,3.562-13.815c8.398-4.65,15.625-11.471,20.748-20.036c28.505,9.788,59.697-5.046,69.998-33.493
		C821.252,337.446,806.389,305.709,777.648,295.301z"/>
	<linearGradient id="SVGID_4_" gradientUnits="userSpaceOnUse" x1="476.6195" y1="287.5377" x2="294.2616" y2="510.5487">
		<stop  offset="0" style="stop-color:#697DD3"/>
		<stop  offset="0.0143" style="stop-color:#7083D5;stop-opacity:0.9679"/>
		<stop  offset="0.1199" style="stop-color:#A3AFE4;stop-opacity:0.7312"/>
		<stop  offset="0.2194" style="stop-color:#CBD2F0;stop-opacity:0.5083"/>
		<stop  offset="0.3098" style="stop-color:#E7EBF8;stop-opacity:0.3055"/>
		<stop  offset="0.3884" style="stop-color:#F9FAFD;stop-opacity:0.1294"/>
		<stop  offset="0.4461" style="stop-color:#FFFFFF;stop-opacity:0"/>
	</linearGradient>
	<path style="clip-path:url(#XMLID_3_);fill:url(#SVGID_4_);" d="M477.499,382.955c-6.057,0-11.935,0.776-17.545,2.232
		c-0.376-30.945-24.254-56.128-54.331-57.948c0.004-0.237,0.018-0.472,0.018-0.71c0-22.306-17.786-40.389-39.727-40.389
		c-1.481,0-2.94,0.089-4.379,0.25c0.186-1.741,0.289-3.507,0.289-5.298c0-26.735-21.317-48.407-47.614-48.407
		c-26.296,0-47.614,21.673-47.614,48.407s21.317,48.407,47.614,48.407c4.15,0,8.174-0.542,12.012-1.556
		c0.525,15.493,9.624,28.77,22.632,35.068c-2.934,7.042-4.557,14.785-4.557,22.914c0,32.475,25.895,58.801,57.837,58.801
		c1.825,0,3.627-0.096,5.408-0.264c-0.481,3.384-0.734,6.842-0.734,10.362c0,39.692,31.649,71.868,70.69,71.868
		s70.69-32.176,70.69-71.868S516.54,382.955,477.499,382.955z"/>
	<g style="clip-path:url(#XMLID_3_);">
		<path style="opacity:0.5;fill:#B9D1AF;" d="M687.196,587.623c0,0,63.063-8.336,89.883-35.881c0,0,54.18,67.662,64.513,68.862
			L745.727,626L687.196,587.623z"/>
		<path style="fill:#91BFA2;" d="M297.945,511.15c0,0,86.983-10.873,103.655-31.894c0,0,68.771,38.508,77.198,39.596l-90.427,32.891
			L297.945,511.15z"/>
		<path style="fill:#A2C6AC;" d="M509.786,546.849c0,0,47.841-10.873,70.13-23.377c0,0,40.773,41.317,67.956,41.317l-139.334-4.822
			L509.786,546.849z"/>
		<g>
			<defs>
				<path id="XMLID_57_" d="M504.893,552.829c0,0,126.126,7.611,173.967-11.96c0,0,127.126,90.245,148.372,93.507l-296.244-30.444
					L504.893,552.829z"/>
			</defs>
			<linearGradient id="XMLID_4_" gradientUnits="userSpaceOnUse" x1="681.8765" y1="526.2651" x2="664.5925" y2="599.8615">
				<stop  offset="0" style="stop-color:#7AAF93"/>
				<stop  offset="1" style="stop-color:#9EC6AC"/>
			</linearGradient>
			<use xlink:href="#XMLID_57_"  style="overflow:visible;fill:url(#XMLID_4_);"/>
			<clipPath id="XMLID_5_">
				<use xlink:href="#XMLID_57_"  style="overflow:visible;"/>
			</clipPath>
			<linearGradient id="SVGID_5_" gradientUnits="userSpaceOnUse" x1="796.4913" y1="441.9002" x2="757.6722" y2="607.1946">
				<stop  offset="0" style="stop-color:#7AAF93"/>
				<stop  offset="1" style="stop-color:#9EC6AC"/>
			</linearGradient>
			<path style="clip-path:url(#XMLID_5_);fill:url(#SVGID_5_);" d="M654.396,491.397c0,0,63.969,96.769,32.8,178.86h186.138
				L687.196,450.624L654.396,491.397z"/>
		</g>
		<g>
			<defs>
				<path id="XMLID_59_" d="M111.293,500.639c0,0,70.674,1.087,182.665-38.055c0,0,83.722,59.801,156.57,72.849l-157.658,58.714
					l-181.578-9.786V500.639z"/>
			</defs>
			<linearGradient id="XMLID_6_" gradientUnits="userSpaceOnUse" x1="265.347" y1="459.3899" x2="281.9191" y2="566.4104">
				<stop  offset="0" style="stop-color:#498D78"/>
				<stop  offset="1" style="stop-color:#5FA58B"/>
			</linearGradient>
			<use xlink:href="#XMLID_59_"  style="overflow:visible;fill:url(#XMLID_6_);"/>
			<clipPath id="XMLID_7_">
				<use xlink:href="#XMLID_59_"  style="overflow:visible;"/>
			</clipPath>
			<linearGradient id="SVGID_6_" gradientUnits="userSpaceOnUse" x1="429.1657" y1="382.188" x2="450.2076" y2="518.075">
				<stop  offset="0" style="stop-color:#58AC92"/>
				<stop  offset="0.9944" style="stop-color:#6CB19E"/>
			</linearGradient>
			<path style="clip-path:url(#XMLID_7_);fill:url(#SVGID_6_);" d="M297.312,409.368c0,0-25.489,192.761,81.246,321.799
				l216.656-267.635L297.312,409.368z"/>
		</g>
		<g>
			<defs>
				<path id="XMLID_56_" d="M847.39,611.543c0,0-233.768-18.484-374.029-106.555c0,0-210.935,85.896-333.799,106.555
					l574.091,106.555l175.054-13.047L847.39,611.543z"/>
			</defs>
			<linearGradient id="XMLID_8_" gradientUnits="userSpaceOnUse" x1="515.1368" y1="643.6158" x2="524.0954" y2="512.3523">
				<stop  offset="0" style="stop-color:#639780"/>
				<stop  offset="1" style="stop-color:#498971"/>
			</linearGradient>
			<use xlink:href="#XMLID_56_"  style="overflow:visible;fill:url(#XMLID_8_);"/>
			<clipPath id="XMLID_9_">
				<use xlink:href="#XMLID_56_"  style="overflow:visible;"/>
			</clipPath>
			<linearGradient id="SVGID_7_" gradientUnits="userSpaceOnUse" x1="724.0524" y1="598.1548" x2="494.415" y2="516.5574">
				<stop  offset="0" style="stop-color:#87C192"/>
				<stop  offset="1" style="stop-color:#A6BFA1"/>
			</linearGradient>
			<path style="clip-path:url(#XMLID_9_);fill:url(#SVGID_7_);" d="M478.798,453.886c0,0-28.27,161.463,41.861,254.427
				l368.049,94.594l42.948-146.785L764.393,430.059L478.798,453.886z"/>
		</g>
	</g>
	<polygon style="clip-path:url(#XMLID_3_);fill:#27594E;" points="348.29,661.072 381.744,579.826 398.471,661.072 	"/>
	<polygon style="clip-path:url(#XMLID_3_);fill:#27594E;" points="431.926,673.02 433.988,541.593 477.328,682.579 	"/>
	<polygon style="clip-path:url(#XMLID_3_);fill:#27594E;" points="563.353,682.579 602.916,612.086 602.916,682.579 	"/>
	<polygon style="clip-path:url(#XMLID_3_);fill:#27594E;" points="649.379,682.579 663.54,545.678 685.223,682.579 	"/>
	<g style="clip-path:url(#XMLID_3_);">
		<defs>
			<path id="SVGID_8_" d="M162.977,525.731c0,0,162.726,112.016,317.258,117.912c154.531,5.896,423.791,37.732,489.349,94.329
				v87.255H162.977V525.731"/>
		</defs>
		<use xlink:href="#SVGID_8_"  style="overflow:visible;fill:#ECEFDA;"/>
		<clipPath id="SVGID_9_">
			<use xlink:href="#SVGID_8_"  style="overflow:visible;"/>
		</clipPath>
		<polygon style="clip-path:url(#SVGID_9_);fill:#A7C2B1;" points="360.238,614.873 321.208,661.869 374.309,625.358 		"/>
		<polygon style="clip-path:url(#SVGID_9_);fill:#A7C2B1;" points="404.445,673.02 423.562,628.813 449.848,631.202 		"/>
		<polygon style="clip-path:url(#SVGID_9_);fill:#A7C2B1;" points="568.133,639.566 592.028,645.54 566.413,677.127 		"/>
		<polygon style="clip-path:url(#SVGID_9_);fill:#A7C2B1;" points="641.015,645.54 668.495,647.93 642.21,689.747 		"/>
	</g>
	<polygon style="clip-path:url(#XMLID_3_);fill:#1C3D2C;" points="209.496,723.202 307.667,500.97 307.667,744.708 	"/>
	<polygon style="clip-path:url(#XMLID_3_);fill:#1C3D2C;" points="376.965,854.629 441.484,718.423 460.601,871.357 	"/>
	<polygon style="clip-path:url(#XMLID_3_);fill:#1C3D2C;" points="546.626,871.357 546.626,673.02 602.916,871.357 	"/>
	
		<linearGradient id="SVGID_10_" gradientUnits="userSpaceOnUse" x1="6.9376" y1="-1344.3993" x2="7.5396" y2="-1254.5753" gradientTransform="matrix(0.5488 -0.836 -0.836 -0.5488 -660.9054 -526.7954)">
		<stop  offset="0.357" style="stop-color:#4BC2AC"/>
		<stop  offset="0.4028" style="stop-color:#62CAB7;stop-opacity:0.9287"/>
		<stop  offset="0.5079" style="stop-color:#92DACD;stop-opacity:0.7653"/>
		<stop  offset="0.6128" style="stop-color:#B9E7DF;stop-opacity:0.6022"/>
		<stop  offset="0.7156" style="stop-color:#D8F2ED;stop-opacity:0.4423"/>
		<stop  offset="0.8156" style="stop-color:#EDF9F7;stop-opacity:0.2867"/>
		<stop  offset="0.9119" style="stop-color:#FBFDFD;stop-opacity:0.137"/>
		<stop  offset="1" style="stop-color:#FFFFFF;stop-opacity:0"/>
	</linearGradient>
	<path style="clip-path:url(#XMLID_3_);fill:url(#SVGID_10_);" d="M394.424,158.633l66.843,46.662
		c1.46,0.958,3.438,0.548,4.396-0.912v0c0.958-1.46,0.548-3.438-0.912-4.396l-69.397-42.771
		C393.895,156.258,392.965,157.675,394.424,158.633z"/>
	
		<linearGradient id="SVGID_11_" gradientUnits="userSpaceOnUse" x1="-39.9851" y1="-1778.9916" x2="-39.3831" y2="-1689.1676" gradientTransform="matrix(0.5488 -0.836 -0.836 -0.5488 -660.9054 -526.7954)">
		<stop  offset="0.357" style="stop-color:#4BC2AC"/>
		<stop  offset="0.4028" style="stop-color:#62CAB7;stop-opacity:0.9287"/>
		<stop  offset="0.5079" style="stop-color:#92DACD;stop-opacity:0.7653"/>
		<stop  offset="0.6128" style="stop-color:#B9E7DF;stop-opacity:0.6022"/>
		<stop  offset="0.7156" style="stop-color:#D8F2ED;stop-opacity:0.4423"/>
		<stop  offset="0.8156" style="stop-color:#EDF9F7;stop-opacity:0.2867"/>
		<stop  offset="0.9119" style="stop-color:#FBFDFD;stop-opacity:0.137"/>
		<stop  offset="1" style="stop-color:#FFFFFF;stop-opacity:0"/>
	</linearGradient>
	<path style="clip-path:url(#XMLID_3_);fill:url(#SVGID_11_);" d="M731.985,436.347l66.843,46.662
		c1.46,0.958,3.438,0.548,4.396-0.912v0c0.958-1.46,0.548-3.438-0.912-4.396l-69.397-42.771
		C731.456,433.972,730.525,435.389,731.985,436.347z"/>
	
		<linearGradient id="SVGID_12_" gradientUnits="userSpaceOnUse" x1="-161.487" y1="-1532.8997" x2="-161.0954" y2="-1474.4675" gradientTransform="matrix(0.5488 -0.836 -0.836 -0.5488 -660.9054 -526.7954)">
		<stop  offset="0.357" style="stop-color:#4BC2AC"/>
		<stop  offset="0.4028" style="stop-color:#62CAB7;stop-opacity:0.9287"/>
		<stop  offset="0.5079" style="stop-color:#92DACD;stop-opacity:0.7653"/>
		<stop  offset="0.6128" style="stop-color:#B9E7DF;stop-opacity:0.6022"/>
		<stop  offset="0.7156" style="stop-color:#D8F2ED;stop-opacity:0.4423"/>
		<stop  offset="0.8156" style="stop-color:#EDF9F7;stop-opacity:0.2867"/>
		<stop  offset="0.9119" style="stop-color:#FBFDFD;stop-opacity:0.137"/>
		<stop  offset="1" style="stop-color:#FFFFFF;stop-opacity:0"/>
	</linearGradient>
	<path style="clip-path:url(#XMLID_3_);fill:url(#SVGID_12_);" d="M484.873,419.134l43.483,30.354
		c0.95,0.623,2.236,0.356,2.86-0.593l0,0c0.623-0.95,0.356-2.236-0.593-2.86l-45.144-27.823
		C484.528,417.589,483.923,418.511,484.873,419.134z"/>
	
		<linearGradient id="SVGID_13_" gradientUnits="userSpaceOnUse" x1="-182.7606" y1="-1389.1205" x2="-181.9287" y2="-1264.9983" gradientTransform="matrix(0.5488 -0.836 -0.836 -0.5488 -660.9054 -526.7954)">
		<stop  offset="0.357" style="stop-color:#4BC2AC"/>
		<stop  offset="0.4028" style="stop-color:#62CAB7;stop-opacity:0.9287"/>
		<stop  offset="0.5079" style="stop-color:#92DACD;stop-opacity:0.7653"/>
		<stop  offset="0.6128" style="stop-color:#B9E7DF;stop-opacity:0.6022"/>
		<stop  offset="0.7156" style="stop-color:#D8F2ED;stop-opacity:0.4423"/>
		<stop  offset="0.8156" style="stop-color:#EDF9F7;stop-opacity:0.2867"/>
		<stop  offset="0.9119" style="stop-color:#FBFDFD;stop-opacity:0.137"/>
		<stop  offset="1" style="stop-color:#FFFFFF;stop-opacity:0"/>
	</linearGradient>
	<path style="clip-path:url(#XMLID_3_);fill:url(#SVGID_13_);" d="M300.079,323.993l92.366,64.479
		c2.017,1.324,4.751,0.757,6.075-1.26v0c1.324-2.017,0.757-4.751-1.26-6.075l-95.896-59.102
		C299.347,320.71,298.062,322.669,300.079,323.993z"/>
	<circle style="clip-path:url(#XMLID_3_);fill:#FFFFFF;" cx="571.717" cy="339.512" r="75.423"/>
	<radialGradient id="SVGID_14_" cx="571.7169" cy="339.5115" r="94.389" gradientUnits="userSpaceOnUse">
		<stop  offset="0" style="stop-color:#FFFFFF"/>
		<stop  offset="0.9292" style="stop-color:#FFFFFF;stop-opacity:0.0708"/>
		<stop  offset="1" style="stop-color:#FFFFFF;stop-opacity:0"/>
	</radialGradient>
	<circle style="clip-path:url(#XMLID_3_);fill:url(#SVGID_14_);" cx="571.717" cy="339.512" r="94.389"/>
	<circle style="clip-path:url(#XMLID_3_);fill:#EFF0E2;" cx="586.94" cy="291.979" r="13.101"/>
	<circle style="clip-path:url(#XMLID_3_);fill:#EFF0E2;" cx="621.362" cy="310.808" r="5.728"/>
	<circle style="clip-path:url(#XMLID_3_);fill:#EFF0E2;" cx="609.364" cy="344.637" r="17.726"/>
	<g style="clip-path:url(#XMLID_3_);">
		<circle style="opacity:0.6;fill:#FFFFFF;" cx="382.142" cy="226.564" r="1.892"/>
		<circle style="fill:#FFFFFF;" cx="680.443" cy="291.979" r="0.647"/>
		<circle style="fill:#FFFFFF;" cx="445.253" cy="374.321" r="0.398"/>
		<circle style="fill:#FFFFFF;" cx="573.839" cy="203.66" r="0.53"/>
		<circle style="fill:#FFFFFF;" cx="436.889" cy="226.564" r="1.169"/>
		<circle style="fill:#FFFFFF;" cx="721.067" cy="518.891" r="1.195"/>
		<circle style="fill:#FFFFFF;" cx="460.601" cy="477.911" r="0.837"/>
		<circle style="fill:#FFFFFF;" cx="573.839" cy="442.502" r="0.62"/>
		<circle style="fill:#FFFFFF;" cx="712.703" cy="469.547" r="2.676"/>
		<circle style="opacity:0.46;fill:#FFFFFF;" cx="635.454" cy="491.062" r="2.274"/>
		<circle style="fill:#FFFFFF;" cx="522.73" cy="469.547" r="1.062"/>
		<circle style="opacity:0.51;fill:#FFFFFF;" cx="704.339" cy="399.412" r="0.996"/>
		<circle style="fill:#FFFFFF;" cx="409.225" cy="270.515" r="1.593"/>
		<circle style="opacity:0.32;fill:#FFFFFF;" cx="721.067" cy="316.536" r="1.991"/>
		<circle style="fill:#FFFFFF;" cx="615.634" cy="245.123" r="0.862"/>
		<circle style="fill:#FFFFFF;" cx="522.73" cy="196.296" r="1.792"/>
		<circle style="opacity:0.44;fill:#FFFFFF;" cx="477.328" cy="291.979" r="1.311"/>
		<circle style="fill:#FFFFFF;" cx="491.636" cy="226.564" r="1.892"/>
		<circle style="fill:#FFFFFF;" cx="409.225" cy="336.273" r="1.287"/>
		<circle style="fill:#FFFFFF;" cx="284.966" cy="391.048" r="2.29"/>
		<circle style="opacity:0.49;fill:#FFFFFF;" cx="320.81" cy="414.934" r="2.39"/>
		<circle style="fill:#FFFFFF;" cx="425.952" cy="423.298" r="1.981"/>
		<circle style="fill:#FFFFFF;" cx="343.909" cy="291.979" r="2.705"/>
	</g>
</g>
</svg>
