<svg xmlns="http://www.w3.org/2000/svg" xmlns:xlink="http://www.w3.org/1999/xlink" viewBox="0 0 246.11 174.63"><defs><style>.cls-1,.cls-7,.cls-8{fill:none;}.cls-2{fill:#dfe8ef;}.cls-3{fill:url(#未命名的渐变_540);}.cls-4{fill:url(#未命名的渐变_540-2);}.cls-5{fill:url(#未命名的渐变_540-3);}.cls-6{fill:url(#未命名的渐变_540-4);}.cls-7,.cls-8{stroke:#dfe8ef;stroke-linecap:round;stroke-linejoin:round;stroke-width:2px;}.cls-8{stroke-dasharray:4.78 5.74;}.cls-9{clip-path:url(#clip-path);}.cls-10{fill:url(#未命名的渐变_202);}.cls-11{fill:url(#未命名的渐变_146);}.cls-12{fill:url(#未命名的渐变_222);}.cls-13{clip-path:url(#clip-path-2);}.cls-14{fill:url(#未命名的渐变_253);}.cls-15{fill:url(#未命名的渐变_307);}.cls-16{fill:url(#未命名的渐变_307-2);}.cls-17{fill:url(#未命名的渐变_307-3);}.cls-18{fill:url(#未命名的渐变_307-4);}.cls-19{fill:url(#未命名的渐变_307-5);}.cls-20{fill:url(#未命名的渐变_307-6);}.cls-21{fill:url(#未命名的渐变_192);}.cls-22{fill:url(#未命名的渐变_192-2);}.cls-23{fill:url(#未命名的渐变_192-3);}.cls-24{fill:url(#未命名的渐变_192-4);}.cls-25{fill:url(#未命名的渐变_192-5);}.cls-26{fill:url(#未命名的渐变_192-6);}.cls-27{fill:url(#未命名的渐变_307-7);}.cls-28{fill:url(#未命名的渐变_307-8);}.cls-29{fill:url(#未命名的渐变_307-9);}.cls-30{fill:url(#未命名的渐变_192-7);}</style><linearGradient id="未命名的渐变_540" x1="208.85" y1="134.87" x2="225.51" y2="134.87" gradientUnits="userSpaceOnUse"><stop offset="0" stop-color="#ffcbc8"/><stop offset="1" stop-color="#f5dfa0"/></linearGradient><linearGradient id="未命名的渐变_540-2" x1="208.85" y1="143.76" x2="246.11" y2="143.76" xlink:href="#未命名的渐变_540"/><linearGradient id="未命名的渐变_540-3" x1="-3011.79" y1="58.83" x2="-2995.13" y2="58.83" gradientTransform="matrix(1, 0, 0, -1, 3032.3, 117.66)" xlink:href="#未命名的渐变_540"/><linearGradient id="未命名的渐变_540-4" x1="-3011.79" y1="67.72" x2="-2974.54" y2="67.72" gradientTransform="matrix(1, 0, 0, -1, 3011.79, 135.43)" xlink:href="#未命名的渐变_540"/><clipPath id="clip-path" transform="translate(0 -14.05)"><path class="cls-1" d="M122.12,38.4,46,92.22v83.95a12.5,12.5,0,0,0,12.51,12.5H185.73a12.5,12.5,0,0,0,12.5-12.5V92.22Z"/></clipPath><linearGradient id="未命名的渐变_202" x1="122.12" y1="172.16" x2="122.12" y2="58.04" gradientUnits="userSpaceOnUse"><stop offset="0" stop-color="#ffc64a"/><stop offset="1" stop-color="#ffe67b"/></linearGradient><linearGradient id="未命名的渐变_146" x1="122.12" y1="96.64" x2="122.12" y2="52.2" gradientUnits="userSpaceOnUse"><stop offset="0" stop-color="#ff9b7b"/><stop offset="1" stop-color="#ffe67b"/></linearGradient><linearGradient id="未命名的渐变_222" x1="122.12" y1="176.32" x2="122.12" y2="110.06" gradientUnits="userSpaceOnUse"><stop offset="0" stop-color="#fff199"/><stop offset="1" stop-color="#ffd736"/></linearGradient><clipPath id="clip-path-2" transform="translate(0 -14.05)"><polygon class="cls-1" points="188.78 0 122.12 0 51.59 0 51.59 96.7 122.12 157.65 192.65 96.7 192.65 0 188.78 0"/></clipPath><linearGradient id="未命名的渐变_253" x1="120.31" y1="145.12" x2="120.31" y2="14.05" gradientUnits="userSpaceOnUse"><stop offset="0" stop-color="#fff"/><stop offset="0.03" stop-color="#fff"/><stop offset="1" stop-color="#ffc2e1"/></linearGradient><linearGradient id="未命名的渐变_307" x1="120.31" y1="153.85" x2="120.31" y2="11.37" gradientUnits="userSpaceOnUse"><stop offset="0" stop-color="#ffe3f2"/><stop offset="1" stop-color="#ffa8d7"/></linearGradient><linearGradient id="未命名的渐变_307-2" x1="84.15" y1="153.85" x2="84.15" y2="11.37" xlink:href="#未命名的渐变_307"/><linearGradient id="未命名的渐变_307-3" x1="95.45" y1="153.85" x2="95.45" y2="11.37" xlink:href="#未命名的渐变_307"/><linearGradient id="未命名的渐变_307-4" x1="131.61" y1="153.85" x2="131.61" y2="11.37" xlink:href="#未命名的渐变_307"/><linearGradient id="未命名的渐变_307-5" x1="124.83" y1="153.85" x2="124.83" y2="11.37" xlink:href="#未命名的渐变_307"/><linearGradient id="未命名的渐变_307-6" x1="122.57" y1="153.85" x2="122.57" y2="11.37" xlink:href="#未命名的渐变_307"/><linearGradient id="未命名的渐变_192" x1="132.1" y1="112.96" x2="83.33" y2="51.28" gradientUnits="userSpaceOnUse"><stop offset="0" stop-color="#f59aec"/><stop offset="1" stop-color="#9199f5"/></linearGradient><linearGradient id="未命名的渐变_192-2" x1="148.99" y1="99.6" x2="100.22" y2="37.92" xlink:href="#未命名的渐变_192"/><linearGradient id="未命名的渐变_192-3" x1="156.79" y1="64.78" x2="143.71" y2="-4.75" xlink:href="#未命名的渐变_192"/><linearGradient id="未命名的渐变_192-4" x1="64.59" y1="82.13" x2="51.51" y2="12.59" xlink:href="#未命名的渐变_192"/><linearGradient id="未命名的渐变_192-5" x1="84.57" y1="76.79" x2="71.3" y2="29.5" xlink:href="#未命名的渐变_192"/><linearGradient id="未命名的渐变_192-6" x1="124.73" y1="65.52" x2="111.46" y2="18.23" xlink:href="#未命名的渐变_192"/><linearGradient id="未命名的渐变_307-7" x1="95.22" y1="77.35" x2="77.59" y2="43.69" xlink:href="#未命名的渐变_307"/><linearGradient id="未命名的渐变_307-8" x1="125.93" y1="61.27" x2="108.3" y2="27.61" xlink:href="#未命名的渐变_307"/><linearGradient id="未命名的渐变_307-9" x1="110.2" y1="69.5" x2="92.57" y2="35.85" xlink:href="#未命名的渐变_307"/><linearGradient id="未命名的渐变_192-7" x1="97.28" y1="60.49" x2="97.28" y2="26.15" gradientTransform="translate(29.33 -37.99) rotate(25.9)" xlink:href="#未命名的渐变_192"/></defs><title>制作贺卡 </title><g id="图层_2" data-name="图层 2"><g id="图层_1-2" data-name="图层 1"><g id="制作贺卡"><circle class="cls-2" cx="209.94" cy="59.51" r="5.04"/><rect class="cls-3" x="208.85" y="132.48" width="16.75" height="4.8" rx="2.4" ry="2.4"/><rect class="cls-4" x="208.85" y="141.36" width="37.26" height="4.8" rx="2.4" ry="2.4"/><rect class="cls-5" x="20.51" y="56.43" width="16.75" height="4.8" rx="2.4" ry="2.4" transform="translate(57.76 103.61) rotate(-180)"/><rect class="cls-6" y="65.32" width="37.26" height="4.8" rx="2.4" ry="2.4" transform="translate(37.26 121.39) rotate(180)"/><line class="cls-7" x1="210.17" y1="54.93" x2="210.17" y2="52.43"/><path class="cls-8" d="M210.17,60.73V54.18A14.87,14.87,0,0,0,195.3,39.31H164.94" transform="translate(0 -14.05)"/><line class="cls-7" x1="162.07" y1="25.26" x2="159.57" y2="25.26"/><circle class="cls-2" cx="19.55" cy="115.92" r="5.04"/><line class="cls-7" x1="19.32" y1="120.51" x2="19.32" y2="123.01"/><path class="cls-8" d="M19.32,142.79v6.55a14.88,14.88,0,0,0,14.87,14.88H64.55" transform="translate(0 -14.05)"/><line class="cls-7" x1="67.42" y1="150.17" x2="69.92" y2="150.17"/><g class="cls-9"><polygon class="cls-10" points="171.66 69.59 122.12 69.59 72.58 69.59 46.01 78.17 46.01 174.63 122.12 174.63 198.23 174.63 198.23 78.17 171.66 69.59"/><polygon class="cls-11" points="198.23 78.17 122.12 24.35 46.01 78.17 67.98 96.64 165.87 82.76 176.26 96.63 198.23 78.17"/><polygon class="cls-12" points="122.12 122.2 46.01 174.63 122.12 174.63 123.21 174.63 198.23 174.63 122.12 122.2"/></g><g class="cls-13"><path class="cls-14" d="M185.85,20.83V138.34a6.78,6.78,0,0,1-6.78,6.78H61.55a6.79,6.79,0,0,1-6.78-6.78V20.83a6.79,6.79,0,0,1,6.78-6.78H179.07A6.78,6.78,0,0,1,185.85,20.83Z" transform="translate(0 -14.05)"/><path class="cls-15" d="M174.55,138.34H66.07a4.52,4.52,0,0,1-4.52-4.52V77.32a2.27,2.27,0,0,1,2.26-2.26h0a2.26,2.26,0,0,1,2.26,2.26v54.24a2.26,2.26,0,0,0,2.26,2.26h104a2.26,2.26,0,0,0,2.26-2.26V27.61a2.26,2.26,0,0,0-2.26-2.26H170a2.26,2.26,0,0,1-2.26-2.26h0A2.26,2.26,0,0,1,170,20.83h4.52a4.52,4.52,0,0,1,4.52,4.52V133.82A4.52,4.52,0,0,1,174.55,138.34Z" transform="translate(0 -14.05)"/><path class="cls-16" d="M63.81,41.17h0a2.27,2.27,0,0,1-2.26-2.26V25.35a4.52,4.52,0,0,1,4.52-4.52h38.42a2.26,2.26,0,0,1,2.26,2.26h0a2.26,2.26,0,0,1-2.26,2.26H68.33a2.26,2.26,0,0,0-2.26,2.26v11.3A2.26,2.26,0,0,1,63.81,41.17Z" transform="translate(0 -14.05)"/><path class="cls-17" d="M95.45,95.4h0a2.26,2.26,0,0,1,2.26,2.26h0a2.26,2.26,0,0,1-2.26,2.26h0a2.26,2.26,0,0,1-2.26-2.26h0A2.26,2.26,0,0,1,95.45,95.4Z" transform="translate(0 -14.05)"/><path class="cls-18" d="M104.49,95.4h54.24A2.26,2.26,0,0,1,161,97.66h0a2.26,2.26,0,0,1-2.26,2.26H104.49a2.26,2.26,0,0,1-2.26-2.26h0A2.26,2.26,0,0,1,104.49,95.4Z" transform="translate(0 -14.05)"/><path class="cls-19" d="M90.93,104.44h67.8A2.26,2.26,0,0,1,161,106.7h0a2.26,2.26,0,0,1-2.26,2.26H90.93a2.26,2.26,0,0,1-2.26-2.26h0A2.27,2.27,0,0,1,90.93,104.44Z" transform="translate(0 -14.05)"/><path class="cls-20" d="M90.93,113.48h63.28a2.26,2.26,0,0,1,2.26,2.26h0a2.26,2.26,0,0,1-2.26,2.26H90.93a2.26,2.26,0,0,1-2.26-2.26h0A2.27,2.27,0,0,1,90.93,113.48Z" transform="translate(0 -14.05)"/><path class="cls-21" d="M101.67,80.59h0a6.33,6.33,0,0,1-10-3.78l-4.3-21.42-.11-.55,8.26-4.36,3.16,8.71,5.15,14.21A6.32,6.32,0,0,1,101.67,80.59Z" transform="translate(0 -14.05)"/><path class="cls-22" d="M122.64,70.41h0a6.32,6.32,0,0,1-7-2.79l-8-12.84-4.16-6.7,7-5.91,1.17,1.37,14.16,16.64A6.32,6.32,0,0,1,122.64,70.41Z" transform="translate(0 -14.05)"/><path class="cls-23" d="M171,14.05l-37.16,18-4.07,2-3.94-8.13,4.06-2,20.41-9.9Z" transform="translate(0 -14.05)"/><path class="cls-24" d="M68.73,63.65l-4.07,2-9.89,4.79v-10l5.94-2.89,4.07-2Z" transform="translate(0 -14.05)"/><path class="cls-25" d="M92.59,54.92l-3.76,2.67L76,66.66a4.51,4.51,0,0,1-6.3-1.06,4.24,4.24,0,0,1-.38-.65L64.15,54.22a4.51,4.51,0,0,1,2.09-6,5.38,5.38,0,0,1,.7-.28l15-4.43,4.44-1.31Z" transform="translate(0 -14.05)"/><path class="cls-26" d="M127.56,41.66l-15,4.43-4.44,1.31-6.18-12.75L105.67,32l12.79-9.07A4.53,4.53,0,0,1,124.77,24a5.14,5.14,0,0,1,.38.64l5.2,10.73a4.51,4.51,0,0,1-2.09,6A4.22,4.22,0,0,1,127.56,41.66Z" transform="translate(0 -14.05)"/><path class="cls-27" d="M79,53.67h0a2.27,2.27,0,0,0,3,1l4-2-2-4.06-4.07,2A2.27,2.27,0,0,0,79,53.67Z" transform="translate(0 -14.05)"/><path class="cls-28" d="M117,35h0a2.26,2.26,0,0,0-3-1l-5.57,2.73,2,4.07L116,38A2.25,2.25,0,0,0,117,35Z" transform="translate(0 -14.05)"/><path class="cls-29" d="M108.39,36.69l-24.34,12,2,4.06,24.35-12Z" transform="translate(0 -14.05)"/><rect class="cls-30" x="85.77" y="33.27" width="23.03" height="23.03" rx="11.51" ry="11.51" transform="translate(-9.79 32.94) rotate(-25.9)"/></g></g></g></g></svg>